<svg xmlns="http://www.w3.org/2000/svg" width="760" height="670" viewBox="0 0 760 670">
<rect width="760" height="670" fill="#111827"/>
<g font-family="Arial,sans-serif" fill="#e5e7eb">
<text x="30" y="36" font-size="21">Стенд кровати: готовый дом, пустые стройки</text>
<text x="30" y="64" font-size="14">Штатный Hut1Hex; материалы кроватей ещё не внесены</text>
<path d="M310.00,483.75 L358.71,455.62" stroke="#334155" stroke-width="1"/>
<path d="M310.00,483.75 L261.29,455.62" stroke="#334155" stroke-width="1"/>
<path d="M310.00,483.75 L310.00,427.50" stroke="#334155" stroke-width="1"/>
<path d="M310.00,483.75 L358.71,511.88" stroke="#334155" stroke-width="1"/>
<path d="M310.00,483.75 L310.00,540.00" stroke="#334155" stroke-width="1"/>
<path d="M310.00,483.75 L261.29,511.88" stroke="#334155" stroke-width="1"/>
<path d="M358.71,455.62 L407.43,427.50" stroke="#334155" stroke-width="1"/>
<path d="M358.71,455.62 L310.00,427.50" stroke="#334155" stroke-width="1"/>
<path d="M358.71,455.62 L358.71,399.38" stroke="#334155" stroke-width="1"/>
<path d="M358.71,455.62 L407.43,483.75" stroke="#334155" stroke-width="1"/>
<path d="M358.71,455.62 L358.71,511.88" stroke="#334155" stroke-width="1"/>
<path d="M407.43,427.50 L456.14,399.38" stroke="#334155" stroke-width="1"/>
<path d="M407.43,427.50 L358.71,399.38" stroke="#334155" stroke-width="1"/>
<path d="M407.43,427.50 L407.43,371.25" stroke="#334155" stroke-width="1"/>
<path d="M407.43,427.50 L456.14,455.62" stroke="#334155" stroke-width="1"/>
<path d="M407.43,427.50 L407.43,483.75" stroke="#334155" stroke-width="1"/>
<path d="M456.14,399.38 L407.43,371.25" stroke="#334155" stroke-width="1"/>
<path d="M456.14,399.38 L456.14,343.12" stroke="#334155" stroke-width="1"/>
<path d="M456.14,399.38 L504.86,371.25" stroke="#334155" stroke-width="1"/>
<path d="M456.14,399.38 L504.86,427.50" stroke="#334155" stroke-width="1"/>
<path d="M456.14,399.38 L456.14,455.62" stroke="#334155" stroke-width="1"/>
<path d="M261.29,455.62 L310.00,427.50" stroke="#334155" stroke-width="1"/>
<path d="M261.29,455.62 L212.57,427.50" stroke="#334155" stroke-width="1"/>
<path d="M261.29,455.62 L261.29,399.38" stroke="#334155" stroke-width="1"/>
<path d="M261.29,455.62 L261.29,511.88" stroke="#334155" stroke-width="1"/>
<path d="M261.29,455.62 L212.57,483.75" stroke="#334155" stroke-width="1"/>
<path d="M310.00,427.50 L358.71,399.38" stroke="#334155" stroke-width="1"/>
<path d="M310.00,427.50 L261.29,399.38" stroke="#334155" stroke-width="1"/>
<path d="M310.00,427.50 L310.00,371.25" stroke="#334155" stroke-width="1"/>
<path d="M358.71,399.38 L407.43,371.25" stroke="#334155" stroke-width="1"/>
<path d="M358.71,399.38 L310.00,371.25" stroke="#334155" stroke-width="1"/>
<path d="M358.71,399.38 L358.71,343.12" stroke="#334155" stroke-width="1"/>
<path d="M407.43,371.25 L456.14,343.12" stroke="#334155" stroke-width="1"/>
<path d="M407.43,371.25 L358.71,343.12" stroke="#334155" stroke-width="1"/>
<path d="M407.43,371.25 L407.43,315.00" stroke="#334155" stroke-width="1"/>
<path d="M456.14,343.12 L407.43,315.00" stroke="#334155" stroke-width="1"/>
<path d="M456.14,343.12 L456.14,286.88" stroke="#334155" stroke-width="1"/>
<path d="M456.14,343.12 L504.86,315.00" stroke="#334155" stroke-width="1"/>
<path d="M456.14,343.12 L504.86,371.25" stroke="#334155" stroke-width="1"/>
<path d="M212.57,427.50 L261.29,399.38" stroke="#334155" stroke-width="1"/>
<path d="M212.57,427.50 L163.86,399.38" stroke="#334155" stroke-width="1"/>
<path d="M212.57,427.50 L212.57,371.25" stroke="#334155" stroke-width="1"/>
<path d="M212.57,427.50 L212.57,483.75" stroke="#334155" stroke-width="1"/>
<path d="M212.57,427.50 L163.86,455.62" stroke="#334155" stroke-width="1"/>
<path d="M261.29,399.38 L310.00,371.25" stroke="#334155" stroke-width="1"/>
<path d="M261.29,399.38 L212.57,371.25" stroke="#334155" stroke-width="1"/>
<path d="M261.29,399.38 L261.29,343.12" stroke="#334155" stroke-width="1"/>
<path d="M310.00,371.25 L358.71,343.12" stroke="#334155" stroke-width="1"/>
<path d="M310.00,371.25 L261.29,343.12" stroke="#334155" stroke-width="1"/>
<path d="M310.00,371.25 L310.00,315.00" stroke="#334155" stroke-width="1"/>
<path d="M358.71,343.12 L407.43,315.00" stroke="#334155" stroke-width="1"/>
<path d="M358.71,343.12 L310.00,315.00" stroke="#334155" stroke-width="1"/>
<path d="M358.71,343.12 L358.71,286.88" stroke="#334155" stroke-width="1"/>
<path d="M407.43,315.00 L456.14,286.88" stroke="#334155" stroke-width="1"/>
<path d="M407.43,315.00 L358.71,286.88" stroke="#334155" stroke-width="1"/>
<path d="M407.43,315.00 L407.43,258.75" stroke="#334155" stroke-width="1"/>
<path d="M456.14,286.88 L407.43,258.75" stroke="#334155" stroke-width="1"/>
<path d="M456.14,286.88 L456.14,230.62" stroke="#334155" stroke-width="1"/>
<path d="M456.14,286.88 L504.86,258.75" stroke="#334155" stroke-width="1"/>
<path d="M456.14,286.88 L504.86,315.00" stroke="#334155" stroke-width="1"/>
<path d="M163.86,399.38 L212.57,371.25" stroke="#334155" stroke-width="1"/>
<path d="M163.86,399.38 L163.86,343.12" stroke="#334155" stroke-width="1"/>
<path d="M163.86,399.38 L163.86,455.62" stroke="#334155" stroke-width="1"/>
<path d="M163.86,399.38 L115.14,427.50" stroke="#334155" stroke-width="1"/>
<path d="M163.86,399.38 L115.14,371.25" stroke="#334155" stroke-width="1"/>
<path d="M212.57,371.25 L261.29,343.12" stroke="#334155" stroke-width="1"/>
<path d="M212.57,371.25 L163.86,343.12" stroke="#334155" stroke-width="1"/>
<path d="M212.57,371.25 L212.57,315.00" stroke="#334155" stroke-width="1"/>
<path d="M261.29,343.12 L310.00,315.00" stroke="#334155" stroke-width="1"/>
<path d="M261.29,343.12 L212.57,315.00" stroke="#334155" stroke-width="1"/>
<path d="M261.29,343.12 L261.29,286.88" stroke="#334155" stroke-width="1"/>
<path d="M310.00,315.00 L358.71,286.88" stroke="#334155" stroke-width="1"/>
<path d="M310.00,315.00 L261.29,286.88" stroke="#334155" stroke-width="1"/>
<path d="M310.00,315.00 L310.00,258.75" stroke="#334155" stroke-width="1"/>
<path d="M358.71,286.88 L407.43,258.75" stroke="#334155" stroke-width="1"/>
<path d="M358.71,286.88 L310.00,258.75" stroke="#334155" stroke-width="1"/>
<path d="M358.71,286.88 L358.71,230.62" stroke="#334155" stroke-width="1"/>
<path d="M407.43,258.75 L456.14,230.62" stroke="#334155" stroke-width="1"/>
<path d="M407.43,258.75 L358.71,230.62" stroke="#334155" stroke-width="1"/>
<path d="M407.43,258.75 L407.43,202.50" stroke="#334155" stroke-width="1"/>
<path d="M456.14,230.62 L407.43,202.50" stroke="#334155" stroke-width="1"/>
<path d="M456.14,230.62 L456.14,174.38" stroke="#334155" stroke-width="1"/>
<path d="M456.14,230.62 L504.86,202.50" stroke="#334155" stroke-width="1"/>
<path d="M456.14,230.62 L504.86,258.75" stroke="#334155" stroke-width="1"/>
<path d="M163.86,343.12 L212.57,315.00" stroke="#334155" stroke-width="1"/>
<path d="M163.86,343.12 L163.86,286.88" stroke="#334155" stroke-width="1"/>
<path d="M163.86,343.12 L115.14,371.25" stroke="#334155" stroke-width="1"/>
<path d="M163.86,343.12 L115.14,315.00" stroke="#334155" stroke-width="1"/>
<path d="M212.57,315.00 L261.29,286.88" stroke="#334155" stroke-width="1"/>
<path d="M212.57,315.00 L163.86,286.88" stroke="#334155" stroke-width="1"/>
<path d="M212.57,315.00 L212.57,258.75" stroke="#334155" stroke-width="1"/>
<path d="M261.29,286.88 L310.00,258.75" stroke="#334155" stroke-width="1"/>
<path d="M261.29,286.88 L212.57,258.75" stroke="#334155" stroke-width="1"/>
<path d="M261.29,286.88 L261.29,230.62" stroke="#334155" stroke-width="1"/>
<path d="M310.00,258.75 L358.71,230.62" stroke="#334155" stroke-width="1"/>
<path d="M310.00,258.75 L261.29,230.62" stroke="#334155" stroke-width="1"/>
<path d="M310.00,258.75 L310.00,202.50" stroke="#334155" stroke-width="1"/>
<path d="M358.71,230.62 L407.43,202.50" stroke="#334155" stroke-width="1"/>
<path d="M358.71,230.62 L310.00,202.50" stroke="#334155" stroke-width="1"/>
<path d="M358.71,230.62 L358.71,174.38" stroke="#334155" stroke-width="1"/>
<path d="M407.43,202.50 L358.71,174.38" stroke="#334155" stroke-width="1"/>
<path d="M407.43,202.50 L407.43,146.25" stroke="#334155" stroke-width="1"/>
<path d="M407.43,202.50 L456.14,174.38" stroke="#334155" stroke-width="1"/>
<path d="M163.86,286.88 L212.57,258.75" stroke="#334155" stroke-width="1"/>
<path d="M163.86,286.88 L163.86,230.62" stroke="#334155" stroke-width="1"/>
<path d="M163.86,286.88 L115.14,315.00" stroke="#334155" stroke-width="1"/>
<path d="M163.86,286.88 L115.14,258.75" stroke="#334155" stroke-width="1"/>
<path d="M212.57,258.75 L261.29,230.62" stroke="#334155" stroke-width="1"/>
<path d="M212.57,258.75 L163.86,230.62" stroke="#334155" stroke-width="1"/>
<path d="M212.57,258.75 L212.57,202.50" stroke="#334155" stroke-width="1"/>
<path d="M261.29,230.62 L310.00,202.50" stroke="#334155" stroke-width="1"/>
<path d="M261.29,230.62 L212.57,202.50" stroke="#334155" stroke-width="1"/>
<path d="M261.29,230.62 L261.29,174.38" stroke="#334155" stroke-width="1"/>
<path d="M310.00,202.50 L358.71,174.38" stroke="#334155" stroke-width="1"/>
<path d="M310.00,202.50 L261.29,174.38" stroke="#334155" stroke-width="1"/>
<path d="M310.00,202.50 L310.00,146.25" stroke="#334155" stroke-width="1"/>
<path d="M358.71,174.38 L310.00,146.25" stroke="#334155" stroke-width="1"/>
<path d="M358.71,174.38 L358.71,118.12" stroke="#334155" stroke-width="1"/>
<path d="M358.71,174.38 L407.43,146.25" stroke="#334155" stroke-width="1"/>
<path d="M163.86,230.62 L212.57,202.50" stroke="#334155" stroke-width="1"/>
<path d="M163.86,230.62 L115.14,202.50" stroke="#334155" stroke-width="1"/>
<path d="M163.86,230.62 L163.86,174.38" stroke="#334155" stroke-width="1"/>
<path d="M163.86,230.62 L115.14,258.75" stroke="#334155" stroke-width="1"/>
<path d="M212.57,202.50 L261.29,174.38" stroke="#334155" stroke-width="1"/>
<path d="M212.57,202.50 L163.86,174.38" stroke="#334155" stroke-width="1"/>
<path d="M212.57,202.50 L212.57,146.25" stroke="#334155" stroke-width="1"/>
<path d="M261.29,174.38 L310.00,146.25" stroke="#334155" stroke-width="1"/>
<path d="M261.29,174.38 L212.57,146.25" stroke="#334155" stroke-width="1"/>
<path d="M261.29,174.38 L261.29,118.12" stroke="#334155" stroke-width="1"/>
<path d="M310.00,146.25 L261.29,118.12" stroke="#334155" stroke-width="1"/>
<path d="M310.00,146.25 L310.00,90.00" stroke="#334155" stroke-width="1"/>
<path d="M310.00,146.25 L358.71,118.12" stroke="#334155" stroke-width="1"/>
<path d="M115.14,202.50 L163.86,174.38" stroke="#334155" stroke-width="1"/>
<path d="M115.14,202.50 L115.14,258.75" stroke="#334155" stroke-width="1"/>
<path d="M163.86,174.38 L212.57,146.25" stroke="#334155" stroke-width="1"/>
<path d="M212.57,146.25 L261.29,118.12" stroke="#334155" stroke-width="1"/>
<path d="M261.29,118.12 L310.00,90.00" stroke="#334155" stroke-width="1"/>
<path d="M310.00,90.00 L358.71,118.12" stroke="#334155" stroke-width="1"/>
<path d="M358.71,118.12 L407.43,146.25" stroke="#334155" stroke-width="1"/>
<path d="M407.43,146.25 L456.14,174.38" stroke="#334155" stroke-width="1"/>
<path d="M456.14,174.38 L504.86,202.50" stroke="#334155" stroke-width="1"/>
<path d="M504.86,202.50 L504.86,258.75" stroke="#334155" stroke-width="1"/>
<path d="M504.86,258.75 L504.86,315.00" stroke="#334155" stroke-width="1"/>
<path d="M504.86,315.00 L504.86,371.25" stroke="#334155" stroke-width="1"/>
<path d="M504.86,371.25 L504.86,427.50" stroke="#334155" stroke-width="1"/>
<path d="M504.86,427.50 L456.14,455.62" stroke="#334155" stroke-width="1"/>
<path d="M456.14,455.62 L407.43,483.75" stroke="#334155" stroke-width="1"/>
<path d="M407.43,483.75 L358.71,511.88" stroke="#334155" stroke-width="1"/>
<path d="M358.71,511.88 L310.00,540.00" stroke="#334155" stroke-width="1"/>
<path d="M310.00,540.00 L261.29,511.88" stroke="#334155" stroke-width="1"/>
<path d="M261.29,511.88 L212.57,483.75" stroke="#334155" stroke-width="1"/>
<path d="M212.57,483.75 L163.86,455.62" stroke="#334155" stroke-width="1"/>
<path d="M163.86,455.62 L115.14,427.50" stroke="#334155" stroke-width="1"/>
<path d="M115.14,427.50 L115.14,371.25" stroke="#334155" stroke-width="1"/>
<path d="M115.14,371.25 L115.14,315.00" stroke="#334155" stroke-width="1"/>
<path d="M115.14,315.00 L115.14,258.75" stroke="#334155" stroke-width="1"/>
<circle cx="310.00" cy="483.75" r="5" fill="#64748b"/>
<circle cx="358.71" cy="455.62" r="5" fill="#64748b"/>
<circle cx="407.43" cy="427.50" r="5" fill="#64748b"/>
<circle cx="456.14" cy="399.38" r="5" fill="#64748b"/>
<circle cx="261.29" cy="455.62" r="5" fill="#64748b"/>
<circle cx="310.00" cy="427.50" r="5" fill="#64748b"/>
<circle cx="358.71" cy="399.38" r="5" fill="#64748b"/>
<circle cx="407.43" cy="371.25" r="5" fill="#64748b"/>
<circle cx="456.14" cy="343.12" r="5" fill="#64748b"/>
<circle cx="212.57" cy="427.50" r="5" fill="#64748b"/>
<circle cx="261.29" cy="399.38" r="5" fill="#64748b"/>
<circle cx="310.00" cy="371.25" r="5" fill="#64748b"/>
<circle cx="358.71" cy="343.12" r="5" fill="#64748b"/>
<circle cx="407.43" cy="315.00" r="5" fill="#64748b"/>
<circle cx="456.14" cy="286.88" r="5" fill="#64748b"/>
<circle cx="163.86" cy="399.38" r="5" fill="#64748b"/>
<circle cx="212.57" cy="371.25" r="5" fill="#64748b"/>
<circle cx="261.29" cy="343.12" r="5" fill="#64748b"/>
<circle cx="310.00" cy="315.00" r="5" fill="#64748b"/>
<circle cx="358.71" cy="286.88" r="5" fill="#64748b"/>
<circle cx="407.43" cy="258.75" r="5" fill="#64748b"/>
<circle cx="456.14" cy="230.62" r="5" fill="#64748b"/>
<circle cx="163.86" cy="343.12" r="5" fill="#64748b"/>
<circle cx="212.57" cy="315.00" r="5" fill="#64748b"/>
<circle cx="261.29" cy="286.88" r="5" fill="#64748b"/>
<circle cx="310.00" cy="258.75" r="5" fill="#64748b"/>
<circle cx="358.71" cy="230.62" r="5" fill="#64748b"/>
<circle cx="407.43" cy="202.50" r="5" fill="#64748b"/>
<circle cx="163.86" cy="286.88" r="10" fill="#fbbf24"/>
<text x="176.86" y="290.88" font-size="13">пустая кровать</text>
<circle cx="212.57" cy="258.75" r="5" fill="#64748b"/>
<circle cx="261.29" cy="230.62" r="5" fill="#64748b"/>
<circle cx="310.00" cy="202.50" r="5" fill="#64748b"/>
<circle cx="358.71" cy="174.38" r="10" fill="#fbbf24"/>
<text x="371.71" y="178.38" font-size="13">пустая кровать</text>
<circle cx="163.86" cy="230.62" r="5" fill="#64748b"/>
<circle cx="212.57" cy="202.50" r="5" fill="#64748b"/>
<circle cx="261.29" cy="174.38" r="5" fill="#64748b"/>
<circle cx="310.00" cy="146.25" r="5" fill="#64748b"/>
<circle cx="115.14" cy="202.50" r="5" fill="#f87171"/>
<circle cx="163.86" cy="174.38" r="5" fill="#f87171"/>
<circle cx="212.57" cy="146.25" r="5" fill="#f87171"/>
<circle cx="261.29" cy="118.12" r="5" fill="#f87171"/>
<circle cx="310.00" cy="90.00" r="5" fill="#f87171"/>
<circle cx="358.71" cy="118.12" r="5" fill="#f87171"/>
<circle cx="407.43" cy="146.25" r="5" fill="#f87171"/>
<circle cx="456.14" cy="174.38" r="5" fill="#f87171"/>
<circle cx="504.86" cy="202.50" r="5" fill="#f87171"/>
<circle cx="504.86" cy="258.75" r="5" fill="#f87171"/>
<circle cx="504.86" cy="315.00" r="5" fill="#f87171"/>
<circle cx="504.86" cy="371.25" r="5" fill="#f87171"/>
<circle cx="504.86" cy="427.50" r="5" fill="#f87171"/>
<circle cx="456.14" cy="455.62" r="5" fill="#f87171"/>
<circle cx="407.43" cy="483.75" r="5" fill="#f87171"/>
<circle cx="358.71" cy="511.88" r="5" fill="#f87171"/>
<circle cx="310.00" cy="540.00" r="5" fill="#f87171"/>
<circle cx="261.29" cy="511.88" r="5" fill="#f87171"/>
<circle cx="212.57" cy="483.75" r="5" fill="#38bdf8"/>
<circle cx="163.86" cy="455.62" r="5" fill="#f87171"/>
<circle cx="115.14" cy="427.50" r="5" fill="#f87171"/>
<circle cx="115.14" cy="371.25" r="5" fill="#f87171"/>
<circle cx="115.14" cy="315.00" r="5" fill="#f87171"/>
<circle cx="115.14" cy="258.75" r="5" fill="#f87171"/>
<circle cx="40" cy="551" r="5" fill="#64748b"/><text x="55" y="555" font-size="14">Свободные узлы</text>
<circle cx="40" cy="576" r="5" fill="#f87171"/><text x="55" y="580" font-size="14">Блокировка мира</text>
<circle cx="40" cy="601" r="5" fill="#38bdf8"/><text x="55" y="605" font-size="14">Дверные узлы</text>
<circle cx="40" cy="626" r="5" fill="#fbbf24"/><text x="55" y="630" font-size="14">Якоря пустых строек</text>
<text x="355" y="580" font-size="14">Радиус гекса: 1.5 wu</text><text x="355" y="605" font-size="14">Шаг узлов: 0.375 wu</text><text x="355" y="630" font-size="14">Внутренних узлов: 37</text></g></svg>