<svg xmlns="http://www.w3.org/2000/svg" width="1158" height="880" viewBox="0 0 1158 880" font-family="Helvetica,Arial,sans-serif">
<rect width="1158" height="880" fill="#12161c"/>
<text x="20" y="34" fill="#e8eef6" font-size="19" font-weight="bold">§35.4 r2 — солнце перекрывает КРЫША, а не флаг Indoor (баг #167)</text>
<text x="20" y="58" fill="#9fb0c4" font-size="13">Дом колонии, сид −28147312. Гекс R = 1.5 wu, ширина √3·R = 2.598 wu, шаг ряда 1.5·R = 2.25 wu — как в HexSpatialMath.</text>
<text x="20" y="76" fill="#9fb0c4" font-size="13">Кровать на (0,3) стоит под открытым небом: тайл помечен Indoor (санктуарий), но перекрытия над ней нет.</text>
<polygon points="71.0,92.0 115.2,117.5 115.2,168.5 71.0,194.0 26.8,168.5 26.8,117.5" fill="#1c2a22" stroke="#33513f" stroke-width="1.6"/>
<text x="71.0" y="147.0" fill="#6d7c8c" font-size="10" text-anchor="middle">-3,-1</text>
<polygon points="159.3,92.0 203.5,117.5 203.5,168.5 159.3,194.0 115.2,168.5 115.2,117.5" fill="#1c2a22" stroke="#33513f" stroke-width="1.6"/>
<text x="159.3" y="147.0" fill="#6d7c8c" font-size="10" text-anchor="middle">-2,-1</text>
<polygon points="247.7,92.0 291.8,117.5 291.8,168.5 247.7,194.0 203.5,168.5 203.5,117.5" fill="#1c2a22" stroke="#33513f" stroke-width="1.6"/>
<text x="247.7" y="147.0" fill="#6d7c8c" font-size="10" text-anchor="middle">-1,-1</text>
<polygon points="336.0,92.0 380.2,117.5 380.2,168.5 336.0,194.0 291.8,168.5 291.8,117.5" fill="#1c2a22" stroke="#33513f" stroke-width="1.6"/>
<text x="336.0" y="147.0" fill="#6d7c8c" font-size="10" text-anchor="middle">0,-1</text>
<polygon points="424.3,92.0 468.5,117.5 468.5,168.5 424.3,194.0 380.2,168.5 380.2,117.5" fill="#1c2a22" stroke="#33513f" stroke-width="1.6"/>
<text x="424.3" y="147.0" fill="#6d7c8c" font-size="10" text-anchor="middle">1,-1</text>
<polygon points="512.7,92.0 556.8,117.5 556.8,168.5 512.7,194.0 468.5,168.5 468.5,117.5" fill="#1c2a22" stroke="#33513f" stroke-width="1.6"/>
<text x="512.7" y="147.0" fill="#6d7c8c" font-size="10" text-anchor="middle">2,-1</text>
<polygon points="601.0,92.0 645.2,117.5 645.2,168.5 601.0,194.0 556.8,168.5 556.8,117.5" fill="#1c2a22" stroke="#33513f" stroke-width="1.6"/>
<text x="601.0" y="147.0" fill="#6d7c8c" font-size="10" text-anchor="middle">3,-1</text>
<polygon points="689.3,92.0 733.5,117.5 733.5,168.5 689.3,194.0 645.2,168.5 645.2,117.5" fill="#1c2a22" stroke="#33513f" stroke-width="1.6"/>
<text x="689.3" y="147.0" fill="#6d7c8c" font-size="10" text-anchor="middle">4,-1</text>
<polygon points="777.7,92.0 821.8,117.5 821.8,168.5 777.7,194.0 733.5,168.5 733.5,117.5" fill="#1c2a22" stroke="#33513f" stroke-width="1.6"/>
<text x="777.7" y="147.0" fill="#6d7c8c" font-size="10" text-anchor="middle">5,-1</text>
<polygon points="115.2,168.5 159.3,194.0 159.3,245.0 115.2,270.5 71.0,245.0 71.0,194.0" fill="#1c2a22" stroke="#33513f" stroke-width="1.6"/>
<text x="115.2" y="223.5" fill="#6d7c8c" font-size="10" text-anchor="middle">-3,0</text>
<polygon points="203.5,168.5 247.7,194.0 247.7,245.0 203.5,270.5 159.3,245.0 159.3,194.0" fill="#1c2a22" stroke="#33513f" stroke-width="1.6"/>
<text x="203.5" y="223.5" fill="#6d7c8c" font-size="10" text-anchor="middle">-2,0</text>
<polygon points="291.8,168.5 336.0,194.0 336.0,245.0 291.8,270.5 247.7,245.0 247.7,194.0" fill="#1c2a22" stroke="#33513f" stroke-width="1.6"/>
<text x="291.8" y="223.5" fill="#6d7c8c" font-size="10" text-anchor="middle">-1,0</text>
<polygon points="380.2,168.5 424.3,194.0 424.3,245.0 380.2,270.5 336.0,245.0 336.0,194.0" fill="#3a3626" stroke="#c9a227" stroke-width="1.6"/>
<text x="380.2" y="223.5" fill="#6d7c8c" font-size="10" text-anchor="middle">0,0</text>
<polygon points="468.5,168.5 512.7,194.0 512.7,245.0 468.5,270.5 424.3,245.0 424.3,194.0" fill="#3a3626" stroke="#c9a227" stroke-width="1.6"/>
<text x="468.5" y="223.5" fill="#6d7c8c" font-size="10" text-anchor="middle">1,0</text>
<polygon points="556.8,168.5 601.0,194.0 601.0,245.0 556.8,270.5 512.7,245.0 512.7,194.0" fill="#3a3626" stroke="#c9a227" stroke-width="1.6"/>
<text x="556.8" y="223.5" fill="#6d7c8c" font-size="10" text-anchor="middle">2,0</text>
<polygon points="645.2,168.5 689.3,194.0 689.3,245.0 645.2,270.5 601.0,245.0 601.0,194.0" fill="#4a3a30" stroke="#6a5548" stroke-width="1.6"/>
<text x="645.2" y="223.5" fill="#6d7c8c" font-size="10" text-anchor="middle">3,0</text>
<polygon points="733.5,168.5 777.7,194.0 777.7,245.0 733.5,270.5 689.3,245.0 689.3,194.0" fill="#1c2a22" stroke="#33513f" stroke-width="1.6"/>
<text x="733.5" y="223.5" fill="#6d7c8c" font-size="10" text-anchor="middle">4,0</text>
<polygon points="821.8,168.5 866.0,194.0 866.0,245.0 821.8,270.5 777.7,245.0 777.7,194.0" fill="#1c2a22" stroke="#33513f" stroke-width="1.6"/>
<text x="821.8" y="223.5" fill="#6d7c8c" font-size="10" text-anchor="middle">5,0</text>
<polygon points="159.3,245.0 203.5,270.5 203.5,321.5 159.3,347.0 115.2,321.5 115.2,270.5" fill="#1c2a22" stroke="#33513f" stroke-width="1.6"/>
<text x="159.3" y="300.0" fill="#6d7c8c" font-size="10" text-anchor="middle">-3,1</text>
<polygon points="247.7,245.0 291.8,270.5 291.8,321.5 247.7,347.0 203.5,321.5 203.5,270.5" fill="#1c2a22" stroke="#33513f" stroke-width="1.6"/>
<text x="247.7" y="300.0" fill="#6d7c8c" font-size="10" text-anchor="middle">-2,1</text>
<polygon points="336.0,245.0 380.2,270.5 380.2,321.5 336.0,347.0 291.8,321.5 291.8,270.5" fill="#1c2a22" stroke="#33513f" stroke-width="1.6"/>
<text x="336.0" y="300.0" fill="#6d7c8c" font-size="10" text-anchor="middle">-1,1</text>
<polygon points="424.3,245.0 468.5,270.5 468.5,321.5 424.3,347.0 380.2,321.5 380.2,270.5" fill="#3a3626" stroke="#c9a227" stroke-width="1.6"/>
<text x="424.3" y="300.0" fill="#6d7c8c" font-size="10" text-anchor="middle">0,1</text>
<polygon points="512.7,245.0 556.8,270.5 556.8,321.5 512.7,347.0 468.5,321.5 468.5,270.5" fill="#3a3626" stroke="#c9a227" stroke-width="1.6"/>
<text x="512.7" y="300.0" fill="#6d7c8c" font-size="10" text-anchor="middle">1,1</text>
<polygon points="601.0,245.0 645.2,270.5 645.2,321.5 601.0,347.0 556.8,321.5 556.8,270.5" fill="#3a3626" stroke="#c9a227" stroke-width="1.6"/>
<text x="601.0" y="300.0" fill="#6d7c8c" font-size="10" text-anchor="middle">2,1</text>
<polygon points="689.3,245.0 733.5,270.5 733.5,321.5 689.3,347.0 645.2,321.5 645.2,270.5" fill="#3a3626" stroke="#c9a227" stroke-width="1.6"/>
<text x="689.3" y="300.0" fill="#6d7c8c" font-size="10" text-anchor="middle">3,1</text>
<polygon points="777.7,245.0 821.8,270.5 821.8,321.5 777.7,347.0 733.5,321.5 733.5,270.5" fill="#1c2a22" stroke="#33513f" stroke-width="1.6"/>
<text x="777.7" y="300.0" fill="#6d7c8c" font-size="10" text-anchor="middle">4,1</text>
<polygon points="866.0,245.0 910.2,270.5 910.2,321.5 866.0,347.0 821.8,321.5 821.8,270.5" fill="#1c2a22" stroke="#33513f" stroke-width="1.6"/>
<text x="866.0" y="300.0" fill="#6d7c8c" font-size="10" text-anchor="middle">5,1</text>
<polygon points="203.5,321.5 247.7,347.0 247.7,398.0 203.5,423.5 159.3,398.0 159.3,347.0" fill="#1c2a22" stroke="#33513f" stroke-width="1.6"/>
<text x="203.5" y="376.5" fill="#6d7c8c" font-size="10" text-anchor="middle">-3,2</text>
<polygon points="291.8,321.5 336.0,347.0 336.0,398.0 291.8,423.5 247.7,398.0 247.7,347.0" fill="#1c2a22" stroke="#33513f" stroke-width="1.6"/>
<text x="291.8" y="376.5" fill="#6d7c8c" font-size="10" text-anchor="middle">-2,2</text>
<polygon points="380.2,321.5 424.3,347.0 424.3,398.0 380.2,423.5 336.0,398.0 336.0,347.0" fill="#3a3626" stroke="#c9a227" stroke-width="1.6"/>
<text x="380.2" y="376.5" fill="#6d7c8c" font-size="10" text-anchor="middle">-1,2</text>
<polygon points="468.5,321.5 512.7,347.0 512.7,398.0 468.5,423.5 424.3,398.0 424.3,347.0" fill="#3a3626" stroke="#c9a227" stroke-width="1.6"/>
<text x="468.5" y="376.5" fill="#6d7c8c" font-size="10" text-anchor="middle">0,2</text>
<polygon points="556.8,321.5 601.0,347.0 601.0,398.0 556.8,423.5 512.7,398.0 512.7,347.0" fill="#4a3a30" stroke="#6a5548" stroke-width="1.6"/>
<text x="556.8" y="376.5" fill="#6d7c8c" font-size="10" text-anchor="middle">1,2</text>
<polygon points="645.2,321.5 689.3,347.0 689.3,398.0 645.2,423.5 601.0,398.0 601.0,347.0" fill="#3a3626" stroke="#c9a227" stroke-width="1.6"/>
<text x="645.2" y="376.5" fill="#6d7c8c" font-size="10" text-anchor="middle">2,2</text>
<polygon points="733.5,321.5 777.7,347.0 777.7,398.0 733.5,423.5 689.3,398.0 689.3,347.0" fill="#1c2a22" stroke="#33513f" stroke-width="1.6"/>
<text x="733.5" y="376.5" fill="#6d7c8c" font-size="10" text-anchor="middle">3,2</text>
<polygon points="821.8,321.5 866.0,347.0 866.0,398.0 821.8,423.5 777.7,398.0 777.7,347.0" fill="#1c2a22" stroke="#33513f" stroke-width="1.6"/>
<text x="821.8" y="376.5" fill="#6d7c8c" font-size="10" text-anchor="middle">4,2</text>
<polygon points="910.2,321.5 954.3,347.0 954.3,398.0 910.2,423.5 866.0,398.0 866.0,347.0" fill="#1c2a22" stroke="#33513f" stroke-width="1.6"/>
<text x="910.2" y="376.5" fill="#6d7c8c" font-size="10" text-anchor="middle">5,2</text>
<polygon points="247.7,398.0 291.8,423.5 291.8,474.5 247.7,500.0 203.5,474.5 203.5,423.5" fill="#1c2a22" stroke="#33513f" stroke-width="1.6"/>
<text x="247.7" y="453.0" fill="#6d7c8c" font-size="10" text-anchor="middle">-3,3</text>
<polygon points="336.0,398.0 380.2,423.5 380.2,474.5 336.0,500.0 291.8,474.5 291.8,423.5" fill="#1c2a22" stroke="#33513f" stroke-width="1.6"/>
<text x="336.0" y="453.0" fill="#6d7c8c" font-size="10" text-anchor="middle">-2,3</text>
<polygon points="424.3,398.0 468.5,423.5 468.5,474.5 424.3,500.0 380.2,474.5 380.2,423.5" fill="#3a3626" stroke="#c9a227" stroke-width="1.6"/>
<text x="424.3" y="453.0" fill="#6d7c8c" font-size="10" text-anchor="middle">-1,3</text>
<polygon points="512.7,398.0 556.8,423.5 556.8,474.5 512.7,500.0 468.5,474.5 468.5,423.5" fill="#3a3626" stroke="#c9a227" stroke-width="1.6"/>
<text x="512.7" y="453.0" fill="#6d7c8c" font-size="10" text-anchor="middle">0,3</text>
<polygon points="601.0,398.0 645.2,423.5 645.2,474.5 601.0,500.0 556.8,474.5 556.8,423.5" fill="#3a3626" stroke="#c9a227" stroke-width="1.6"/>
<text x="601.0" y="453.0" fill="#6d7c8c" font-size="10" text-anchor="middle">1,3</text>
<polygon points="689.3,398.0 733.5,423.5 733.5,474.5 689.3,500.0 645.2,474.5 645.2,423.5" fill="#3a3626" stroke="#c9a227" stroke-width="1.6"/>
<text x="689.3" y="453.0" fill="#6d7c8c" font-size="10" text-anchor="middle">2,3</text>
<polygon points="777.7,398.0 821.8,423.5 821.8,474.5 777.7,500.0 733.5,474.5 733.5,423.5" fill="#1c2a22" stroke="#33513f" stroke-width="1.6"/>
<text x="777.7" y="453.0" fill="#6d7c8c" font-size="10" text-anchor="middle">3,3</text>
<polygon points="866.0,398.0 910.2,423.5 910.2,474.5 866.0,500.0 821.8,474.5 821.8,423.5" fill="#1c2a22" stroke="#33513f" stroke-width="1.6"/>
<text x="866.0" y="453.0" fill="#6d7c8c" font-size="10" text-anchor="middle">4,3</text>
<polygon points="954.3,398.0 998.5,423.5 998.5,474.5 954.3,500.0 910.2,474.5 910.2,423.5" fill="#1c2a22" stroke="#33513f" stroke-width="1.6"/>
<text x="954.3" y="453.0" fill="#6d7c8c" font-size="10" text-anchor="middle">5,3</text>
<polygon points="291.8,474.5 336.0,500.0 336.0,551.0 291.8,576.5 247.7,551.0 247.7,500.0" fill="#1c2a22" stroke="#33513f" stroke-width="1.6"/>
<text x="291.8" y="529.5" fill="#6d7c8c" font-size="10" text-anchor="middle">-3,4</text>
<polygon points="380.2,474.5 424.3,500.0 424.3,551.0 380.2,576.5 336.0,551.0 336.0,500.0" fill="#1c2a22" stroke="#33513f" stroke-width="1.6"/>
<text x="380.2" y="529.5" fill="#6d7c8c" font-size="10" text-anchor="middle">-2,4</text>
<polygon points="468.5,474.5 512.7,500.0 512.7,551.0 468.5,576.5 424.3,551.0 424.3,500.0" fill="#1c2a22" stroke="#33513f" stroke-width="1.6"/>
<text x="468.5" y="529.5" fill="#6d7c8c" font-size="10" text-anchor="middle">-1,4</text>
<polygon points="556.8,474.5 601.0,500.0 601.0,551.0 556.8,576.5 512.7,551.0 512.7,500.0" fill="#1c2a22" stroke="#33513f" stroke-width="1.6"/>
<text x="556.8" y="529.5" fill="#6d7c8c" font-size="10" text-anchor="middle">0,4</text>
<polygon points="645.2,474.5 689.3,500.0 689.3,551.0 645.2,576.5 601.0,551.0 601.0,500.0" fill="#1c2a22" stroke="#33513f" stroke-width="1.6"/>
<text x="645.2" y="529.5" fill="#6d7c8c" font-size="10" text-anchor="middle">1,4</text>
<polygon points="733.5,474.5 777.7,500.0 777.7,551.0 733.5,576.5 689.3,551.0 689.3,500.0" fill="#1c2a22" stroke="#33513f" stroke-width="1.6"/>
<text x="733.5" y="529.5" fill="#6d7c8c" font-size="10" text-anchor="middle">2,4</text>
<polygon points="821.8,474.5 866.0,500.0 866.0,551.0 821.8,576.5 777.7,551.0 777.7,500.0" fill="#1c2a22" stroke="#33513f" stroke-width="1.6"/>
<text x="821.8" y="529.5" fill="#6d7c8c" font-size="10" text-anchor="middle">3,4</text>
<polygon points="910.2,474.5 954.3,500.0 954.3,551.0 910.2,576.5 866.0,551.0 866.0,500.0" fill="#1c2a22" stroke="#33513f" stroke-width="1.6"/>
<text x="910.2" y="529.5" fill="#6d7c8c" font-size="10" text-anchor="middle">4,4</text>
<polygon points="998.5,474.5 1042.7,500.0 1042.7,551.0 998.5,576.5 954.3,551.0 954.3,500.0" fill="#1c2a22" stroke="#33513f" stroke-width="1.6"/>
<text x="998.5" y="529.5" fill="#6d7c8c" font-size="10" text-anchor="middle">5,4</text>
<polygon points="336.0,551.0 380.2,576.5 380.2,627.5 336.0,653.0 291.8,627.5 291.8,576.5" fill="#1c2a22" stroke="#33513f" stroke-width="1.6"/>
<text x="336.0" y="606.0" fill="#6d7c8c" font-size="10" text-anchor="middle">-3,5</text>
<polygon points="424.3,551.0 468.5,576.5 468.5,627.5 424.3,653.0 380.2,627.5 380.2,576.5" fill="#1c2a22" stroke="#33513f" stroke-width="1.6"/>
<text x="424.3" y="606.0" fill="#6d7c8c" font-size="10" text-anchor="middle">-2,5</text>
<polygon points="512.7,551.0 556.8,576.5 556.8,627.5 512.7,653.0 468.5,627.5 468.5,576.5" fill="#1c2a22" stroke="#33513f" stroke-width="1.6"/>
<text x="512.7" y="606.0" fill="#6d7c8c" font-size="10" text-anchor="middle">-1,5</text>
<polygon points="601.0,551.0 645.2,576.5 645.2,627.5 601.0,653.0 556.8,627.5 556.8,576.5" fill="#2f4f6d" stroke="#7fc4ff" stroke-width="1.6"/>
<text x="601.0" y="606.0" fill="#6d7c8c" font-size="10" text-anchor="middle">0,5</text>
<polygon points="689.3,551.0 733.5,576.5 733.5,627.5 689.3,653.0 645.2,627.5 645.2,576.5" fill="#1c2a22" stroke="#33513f" stroke-width="1.6"/>
<text x="689.3" y="606.0" fill="#6d7c8c" font-size="10" text-anchor="middle">1,5</text>
<polygon points="777.7,551.0 821.8,576.5 821.8,627.5 777.7,653.0 733.5,627.5 733.5,576.5" fill="#1c2a22" stroke="#33513f" stroke-width="1.6"/>
<text x="777.7" y="606.0" fill="#6d7c8c" font-size="10" text-anchor="middle">2,5</text>
<polygon points="866.0,551.0 910.2,576.5 910.2,627.5 866.0,653.0 821.8,627.5 821.8,576.5" fill="#1c2a22" stroke="#33513f" stroke-width="1.6"/>
<text x="866.0" y="606.0" fill="#6d7c8c" font-size="10" text-anchor="middle">3,5</text>
<polygon points="954.3,551.0 998.5,576.5 998.5,627.5 954.3,653.0 910.2,627.5 910.2,576.5" fill="#1c2a22" stroke="#33513f" stroke-width="1.6"/>
<text x="954.3" y="606.0" fill="#6d7c8c" font-size="10" text-anchor="middle">4,5</text>
<polygon points="1042.7,551.0 1086.8,576.5 1086.8,627.5 1042.7,653.0 998.5,627.5 998.5,576.5" fill="#1c2a22" stroke="#33513f" stroke-width="1.6"/>
<text x="1042.7" y="606.0" fill="#6d7c8c" font-size="10" text-anchor="middle">5,5</text>
<polygon points="380.2,627.5 424.3,653.0 424.3,704.0 380.2,729.5 336.0,704.0 336.0,653.0" fill="#1c2a22" stroke="#33513f" stroke-width="1.6"/>
<text x="380.2" y="682.5" fill="#6d7c8c" font-size="10" text-anchor="middle">-3,6</text>
<polygon points="468.5,627.5 512.7,653.0 512.7,704.0 468.5,729.5 424.3,704.0 424.3,653.0" fill="#1c2a22" stroke="#33513f" stroke-width="1.6"/>
<text x="468.5" y="682.5" fill="#6d7c8c" font-size="10" text-anchor="middle">-2,6</text>
<polygon points="556.8,627.5 601.0,653.0 601.0,704.0 556.8,729.5 512.7,704.0 512.7,653.0" fill="#1c2a22" stroke="#33513f" stroke-width="1.6"/>
<text x="556.8" y="682.5" fill="#6d7c8c" font-size="10" text-anchor="middle">-1,6</text>
<polygon points="645.2,627.5 689.3,653.0 689.3,704.0 645.2,729.5 601.0,704.0 601.0,653.0" fill="#1c2a22" stroke="#33513f" stroke-width="1.6"/>
<text x="645.2" y="682.5" fill="#6d7c8c" font-size="10" text-anchor="middle">0,6</text>
<polygon points="733.5,627.5 777.7,653.0 777.7,704.0 733.5,729.5 689.3,704.0 689.3,653.0" fill="#1c2a22" stroke="#33513f" stroke-width="1.6"/>
<text x="733.5" y="682.5" fill="#6d7c8c" font-size="10" text-anchor="middle">1,6</text>
<polygon points="821.8,627.5 866.0,653.0 866.0,704.0 821.8,729.5 777.7,704.0 777.7,653.0" fill="#1c2a22" stroke="#33513f" stroke-width="1.6"/>
<text x="821.8" y="682.5" fill="#6d7c8c" font-size="10" text-anchor="middle">2,6</text>
<polygon points="910.2,627.5 954.3,653.0 954.3,704.0 910.2,729.5 866.0,704.0 866.0,653.0" fill="#1c2a22" stroke="#33513f" stroke-width="1.6"/>
<text x="910.2" y="682.5" fill="#6d7c8c" font-size="10" text-anchor="middle">3,6</text>
<polygon points="998.5,627.5 1042.7,653.0 1042.7,704.0 998.5,729.5 954.3,704.0 954.3,653.0" fill="#1c2a22" stroke="#33513f" stroke-width="1.6"/>
<text x="998.5" y="682.5" fill="#6d7c8c" font-size="10" text-anchor="middle">4,6</text>
<polygon points="1086.8,627.5 1131.0,653.0 1131.0,704.0 1086.8,729.5 1042.7,704.0 1042.7,653.0" fill="#1c2a22" stroke="#33513f" stroke-width="1.6"/>
<text x="1086.8" y="682.5" fill="#6d7c8c" font-size="10" text-anchor="middle">5,6</text>
<circle cx="380.2" cy="358.5" r="3.2" fill="#ffd66b" opacity="0.9"/>
<circle cx="424.3" cy="435.0" r="3.2" fill="#ffd66b" opacity="0.9"/>
<circle cx="380.2" cy="205.5" r="3.2" fill="#ffd66b" opacity="0.9"/>
<circle cx="424.3" cy="282.0" r="3.2" fill="#ffd66b" opacity="0.9"/>
<circle cx="468.5" cy="358.5" r="3.2" fill="#ffd66b" opacity="0.9"/>
<circle cx="512.7" cy="435.0" r="3.2" fill="#ffd66b" opacity="0.9"/>
<circle cx="468.5" cy="205.5" r="3.2" fill="#ffd66b" opacity="0.9"/>
<circle cx="512.7" cy="282.0" r="3.2" fill="#ffd66b" opacity="0.9"/>
<circle cx="601.0" cy="435.0" r="3.2" fill="#ffd66b" opacity="0.9"/>
<circle cx="556.8" cy="205.5" r="3.2" fill="#ffd66b" opacity="0.9"/>
<circle cx="601.0" cy="282.0" r="3.2" fill="#ffd66b" opacity="0.9"/>
<circle cx="645.2" cy="358.5" r="3.2" fill="#ffd66b" opacity="0.9"/>
<circle cx="689.3" cy="435.0" r="3.2" fill="#ffd66b" opacity="0.9"/>
<circle cx="689.3" cy="282.0" r="3.2" fill="#ffd66b" opacity="0.9"/>
<rect x="499.7" y="454.0" width="26" height="13" rx="3" fill="#e06c4f" stroke="#ffb59e" stroke-width="1.4"/>
<text x="512.7" y="487.0" fill="#ffb59e" font-size="11" text-anchor="middle">кровать под небом</text>
<rect x="588.0" y="607.0" width="26" height="13" rx="3" fill="#4d8fc4" stroke="#bfe2ff" stroke-width="1.4"/>
<text x="601.0" y="640.0" fill="#bfe2ff" font-size="11" text-anchor="middle">хижина, 2 лежанки</text>
<rect x="24" y="750" width="20" height="16" rx="3" fill="#3a3626" stroke="#c9a227" stroke-width="1.6"/>
<text x="54" y="764" fill="#e8eef6" font-size="13">Indoor без крыши — санктуарий</text>
<text x="300" y="764" fill="#9fb0c4" font-size="12">тепло +4°, собаки бросают погоню; УФ идёт ПОЛНОСТЬЮ</text>
<rect x="24" y="776" width="20" height="16" rx="3" fill="#2f4f6d" stroke="#7fc4ff" stroke-width="1.6"/>
<text x="54" y="790" fill="#e8eef6" font-size="13">Roofed — настоящее перекрытие</text>
<text x="300" y="790" fill="#9fb0c4" font-size="12">УФ = 0, тайл всегда в тени и бросает навес на соседей</text>
<rect x="24" y="802" width="20" height="16" rx="3" fill="#1c2a22" stroke="#33513f" stroke-width="1.6"/>
<text x="54" y="816" fill="#e8eef6" font-size="13">открытая земля</text>
<text x="300" y="816" fill="#9fb0c4" font-size="12">УФ полный, тень — только от пальм и рельефа (§43)</text>
<rect x="24" y="828" width="20" height="16" rx="3" fill="#4a3a30" stroke="#6a5548" stroke-width="1.6"/>
<text x="54" y="842" fill="#e8eef6" font-size="13">Blocked</text>
<text x="300" y="842" fill="#9fb0c4" font-size="12">не ходибельно</text>
<text x="24" y="872" fill="#ffd66b" font-size="12">● солнце — тайлы, которые до правки ошибочно считались укрытыми (14 штук двора + кольцо стоянки чужака)</text>
</svg>